<svg id="svg" version="1.1" xmlns="http://www.w3.org/2000/svg" xmlns:xlink="http://www.w3.org/1999/xlink" width="400" height="400" viewBox="0, 0, 400,400"><g id="svgg"><path id="path0" d="M125.600 139.233 C 122.850 139.642,119.830 140.342,118.889 140.788 C 117.948 141.235,116.916 141.600,116.595 141.600 C 115.461 141.600,106.057 146.805,104.162 148.481 C 102.541 149.915,101.586 148.689,100.573 143.872 C 99.688 139.664,101.025 140.000,85.174 140.000 L 71.245 140.000 70.623 140.889 C 69.578 142.381,69.684 259.590,70.731 260.538 C 71.806 261.510,99.727 261.547,101.111 260.577 L 102.000 259.955 102.003 226.077 C 102.005 204.851,102.159 191.256,102.416 189.672 C 103.155 185.122,105.781 178.456,107.409 177.000 C 107.655 176.780,108.159 176.110,108.530 175.511 C 111.647 170.475,121.889 167.179,130.045 168.586 C 138.781 170.094,143.958 174.920,146.364 183.800 L 147.339 187.400 147.484 223.584 C 147.614 256.245,147.691 259.838,148.276 260.484 C 149.262 261.574,178.077 261.589,179.004 260.500 C 179.521 259.894,179.620 255.266,179.739 226.200 C 179.905 185.756,180.004 184.880,185.237 177.761 C 194.055 165.763,212.832 164.317,220.805 175.023 C 225.476 181.295,225.593 182.511,225.597 225.077 L 225.600 259.955 226.489 260.577 C 227.986 261.626,256.802 261.503,257.761 260.444 C 258.399 259.738,258.434 256.966,258.287 218.944 L 258.128 178.200 257.067 173.200 C 255.776 167.123,253.494 161.495,251.034 158.325 C 250.575 157.734,249.570 156.396,248.800 155.352 C 246.294 151.953,241.276 147.440,238.007 145.645 C 237.362 145.290,235.611 144.318,234.117 143.485 C 232.623 142.652,230.678 141.806,229.797 141.605 C 228.915 141.404,227.503 140.952,226.660 140.599 C 224.206 139.574,213.533 138.306,209.800 138.596 C 204.686 138.993,198.733 140.020,197.000 140.804 C 196.120 141.202,194.723 141.654,193.896 141.809 C 193.068 141.964,192.287 142.260,192.159 142.467 C 192.031 142.673,190.998 143.279,189.863 143.812 C 188.728 144.345,187.452 145.010,187.027 145.290 C 186.601 145.571,185.211 146.454,183.936 147.254 C 181.188 148.978,177.460 151.869,174.593 154.500 C 171.926 156.948,172.276 157.045,167.206 152.441 C 163.002 148.623,157.714 144.782,154.800 143.429 C 154.030 143.071,152.950 142.516,152.400 142.195 C 151.850 141.874,151.078 141.609,150.684 141.606 C 150.290 141.603,149.282 141.250,148.444 140.822 C 144.542 138.832,133.475 138.062,125.600 139.233 M276.916 140.444 C 276.376 140.984,276.961 142.998,278.007 144.200 C 278.390 144.640,279.457 146.350,280.377 148.000 C 281.298 149.650,282.612 151.900,283.296 153.000 C 284.657 155.186,286.304 158.105,287.586 160.600 C 288.038 161.480,288.946 163.010,289.604 164.000 C 290.261 164.990,291.183 166.655,291.653 167.700 C 292.123 168.745,292.641 169.600,292.805 169.600 C 292.969 169.600,293.334 170.185,293.617 170.900 C 293.900 171.615,294.380 172.493,294.683 172.851 C 295.216 173.479,296.224 175.239,297.975 178.600 C 298.433 179.480,299.347 181.010,300.005 182.000 C 300.662 182.990,301.660 184.700,302.222 185.800 C 304.182 189.638,304.508 190.205,305.213 191.000 C 305.604 191.440,306.220 192.430,306.583 193.200 C 307.581 195.317,308.531 196.931,309.513 198.181 C 310.617 199.583,310.656 201.567,309.606 202.902 C 309.169 203.457,308.161 205.146,307.365 206.655 C 306.569 208.165,305.691 209.670,305.415 210.000 C 305.138 210.330,304.032 212.186,302.956 214.123 C 301.880 216.061,300.507 218.491,299.904 219.523 C 299.301 220.556,298.349 222.210,297.789 223.200 C 297.229 224.190,296.339 225.720,295.812 226.600 C 295.284 227.480,294.345 229.074,293.726 230.141 C 293.107 231.209,292.114 232.919,291.521 233.941 C 290.927 234.964,290.070 236.520,289.617 237.400 C 289.163 238.280,288.265 239.810,287.622 240.800 C 286.979 241.790,285.985 243.500,285.414 244.600 C 284.343 246.662,283.802 247.594,280.900 252.375 C 279.965 253.915,279.195 255.316,279.189 255.488 C 279.183 255.659,278.643 256.507,277.989 257.371 C 275.106 261.182,275.180 261.200,293.718 261.200 C 313.200 261.200,310.657 262.317,316.715 251.094 C 317.218 250.162,318.159 248.590,318.806 247.600 C 319.453 246.610,320.440 244.900,321.000 243.800 C 321.559 242.700,323.001 240.180,324.204 238.200 C 325.406 236.220,326.680 233.970,327.033 233.200 C 327.387 232.430,327.999 231.440,328.392 231.000 C 328.786 230.560,329.244 229.753,329.410 229.208 C 329.576 228.662,330.023 227.762,330.403 227.208 C 332.233 224.538,333.600 222.216,333.600 221.780 C 333.600 221.515,333.895 221.053,334.255 220.755 C 334.615 220.456,335.244 219.489,335.654 218.606 C 336.064 217.723,336.936 216.100,337.592 215.000 C 339.038 212.574,340.806 209.465,341.545 208.046 C 342.107 206.966,343.573 204.612,344.863 202.716 C 346.003 201.040,345.764 199.902,343.603 196.731 C 342.504 195.119,341.604 193.544,341.603 193.231 C 341.601 192.919,341.285 192.316,340.900 191.891 C 340.515 191.467,339.840 190.429,339.400 189.585 C 338.575 188.002,334.880 181.504,333.314 178.883 C 332.827 178.067,331.927 176.526,331.314 175.459 C 330.701 174.391,329.750 172.744,329.200 171.800 C 328.181 170.051,326.875 167.782,324.826 164.200 C 324.197 163.100,323.300 161.480,322.833 160.600 C 322.366 159.720,321.002 157.380,319.802 155.400 C 318.603 153.420,317.309 151.170,316.926 150.400 C 316.544 149.630,316.014 148.730,315.748 148.400 C 315.483 148.070,314.608 146.540,313.804 145.000 C 313.000 143.460,311.770 141.710,311.071 141.111 L 309.800 140.022 293.580 140.011 C 282.218 140.003,277.227 140.133,276.916 140.444 " stroke="none" fill="#080804" fill-rule="evenodd"></path></g></svg>